<svg xmlns="http://www.w3.org/2000/svg" viewBox="0 0 600.84 387.63"><defs><style>.cls-1{fill:#ffdfa6;}.cls-2{fill:#2858a8;}</style></defs><title>trj-logo2Asset 3</title><g id="Layer_2" data-name="Layer 2"><g id="Layer_1-2" data-name="Layer 1"><polygon class="cls-1" points="302.27 0 365.24 127.6 506.05 148.06 404.16 247.38 428.21 387.63 302.27 321.41 176.32 387.63 200.37 247.38 98.48 148.06 239.29 127.6 302.27 0"/><path class="cls-2" d="M78.34,202.48c.84,7.24,2.14,33.54,2.2,34-5.64.5-8.46.77-14.09,1.31-.08-.59-2.67-12.95-3.68-18.46-5.19.53-7.78.8-13,1.37.34,4.19,1,9.65,2,17.07,1.13,8.51,2,14.75,2.68,19.39a65.65,65.65,0,0,1,9-.16c.49,5.78.74,8.67,1.23,14.44,0,0-8.32.56-17.57,1.84s-16.22,2.81-17.12,2.95L27.21,262A75.82,75.82,0,0,1,36,259.74c-.57-4.66-1.46-10.89-2.67-19.39-1.06-7.42-1.94-12.84-2.72-16.87-4.45.64-8,1.27-11,1.81.49,5.39,1.2,17.19,1.29,17.78-5.58,1-8.37,1.51-13.94,2.55-.08-.49-5.77-25.17-6.91-32.37.31-.05,13-3.21,39-6.78S78,202.52,78.34,202.48Z"/><path class="cls-2" d="M86.24,240.88c-1.88-16.37,9.48-30.21,29.86-32.19s34.18,9.41,35.48,25.84c1.26,15.83-10.13,29.7-29.9,31.62S88.05,256.65,86.24,240.88Zm46.69-4.77c-.67-7.46-6.24-12.79-15.32-11.91s-13.53,7.19-12.75,14.63c.71,6.76,6.37,12.68,15.32,11.81S133.53,242.87,132.93,236.11Z"/><path class="cls-2" d="M223.72,204c-8.95,25.51-18.73,51.23-30.43,75.6-7.66-1.11-11.49-1.64-19.17-2.67,3.77-8,6.7-14.37,9.21-19.73a215.9,215.9,0,0,1-28.63-49.35c8.21-1.55,12.32-2.3,20.55-3.77,4.75,13.4,10.17,27.17,14.51,38.22,4.57-11.08,7-19.73,14.58-39.72C212.1,203.1,216,203.38,223.72,204Z"/><path class="cls-2" d="M270.34,245.25c.11,6.46-3.78,12.11-20.24,12.57-14.51.4-21-4.5-21.24-11.09a9.27,9.27,0,0,1,1.45-4.79l6.74,0a10.68,10.68,0,0,1-7.12-10c-.34-8.85,7.81-12.24,19.11-12.55,14-.39,19.07,3.3,19.17,9a20.82,20.82,0,0,1-.59,4.93l-9.25-.6c0-.27,0-1.54,0-3.47a52.47,52.47,0,0,0-9-.44c-4.72.13-8.08.38-8,2.24s3.44,2.07,10.22,2.77C267.17,235.41,270.24,238.79,270.34,245.25Zm-10.31.86c0-1.46-2.87-1.45-16.53-2.76a28.17,28.17,0,0,1-3.83-.61c0,.94-.19,2.54-.2,4.34a44.93,44.93,0,0,0,12.2,1.24C258.38,248.14,260.06,247.24,260,246.11Z"/><path class="cls-2" d="M339.14,230.56c1.78,3.33,4.93,8.83,7.4,12.75,1.84,2.94,3.76,4.39,7,4.48a16.78,16.78,0,0,0,5.21-.75l-2.2,9a15.15,15.15,0,0,1-8.67,2.06c-6.48-.16-10.11-3.75-12.9-8.77-2.48-4.47-6.19-14.38-8.07-19.9a42,42,0,0,1-5.84-1.67c-1.93,8.37-3.21,14.05-4.06,18a46.25,46.25,0,0,1,7.84,1c-.91,3.94-1.36,5.91-2.26,9.86,0,0-5.66-.48-14.37-.51s-15,.4-15,.4c.83-3.95,1.25-5.93,2.09-9.89a62.71,62.71,0,0,1,8.76-.91c1.13-4.79,2.75-12.11,5.29-23.45,2.39-10.66,3.93-17.76,4.9-22.55-4,.28-7.2.67-8.87,1,.93-3.95,1.39-5.93,2.33-9.88a124.71,124.71,0,0,1,29.94-3c19.74.37,31.7,9.25,27.75,24.7C361.74,227.05,349.93,230.28,339.14,230.56Zm-1.45-31.69c-3-.06-6.48,0-10,.13-1,4.28-2.44,10.76-4.73,20.72,3.1.33,7.12.69,12,.77,10,.18,16.13-2.58,17.84-10.39C354.32,202.9,349,199.08,337.69,198.87Z"/><path class="cls-2" d="M448.79,209.81l-6.54-.69c-.56,4.76-1.11,10.93-1.86,21-2,27-15.52,31.4-29.46,30.57-13.15-.77-19.74-7-21.43-9.84.79-7.28,1.19-10.92,2-18.2,2.42,3.21,7.78,10.46,17.88,11,7,.41,11.63-.89,12.35-12.15s1-18.45,1.2-23.74c-6.76-.43-10.41-.44-10.41-.44.09-5.79.13-8.69.21-14.49a172,172,0,0,1,19.35.12,133,133,0,0,1,18.46,2.44C449.83,201.18,449.48,204.06,448.79,209.81Z"/><path class="cls-2" d="M453.16,234.7c1.32-16.42,15.13-27.8,35.51-25.79s31.72,15.84,29.83,32.21c-1.83,15.78-15.71,27.18-35.47,25.23S451.88,250.53,453.16,234.7Zm46.71,4.36c.79-7.45-3.65-13.76-12.72-14.65s-14.66,4.43-15.34,11.89c-.61,6.77,3.79,13.67,12.74,14.55S499.16,245.81,499.87,239.06Z"/><path class="cls-2" d="M600.84,224.29c-1.6,2.08-6.21,11.76-12.57,27.35-1,2.48-5,14-6.41,17.51-5.29,13.74-15.79,26.3-37.59,23.39-15.12-2-23.33-7.6-29-12.68,2.64-4.84,4-7.26,6.63-12.09,6.58,4.8,14.72,8.94,23.65,10.13,11,1.46,14.82-3.35,17.75-11.28,2.71-7.34,5.31-14.07,7.39-19.12-14.21,19.14-24.54,21.29-31.4,20.41-9.78-1.26-16.24-7.45-11.34-21.35,1.57-4.43,3-8.29,4.12-11.67,5.25-15.65,5.64-18.52,5.76-19.51,7.84,1,11.76,1.48,19.59,2.54-.13,1-.93,4.41-6.19,18-1,2.5-2,5.29-3.1,8.46-2.16,6-.18,7.63,2.57,8,7.43,1,21.74-11.81,32.4-30.83C590.18,222.62,593.73,223.17,600.84,224.29Z"/></g></g></svg>