<svg width="438" height="51" viewBox="0 0 438 51" fill="none" xmlns="http://www.w3.org/2000/svg">
<path d="M73.06 28.8C71.71 38.73 71.68 39.66 71.6 40.26C71.37 40.26 70.69 40.1 69.88 39.99C69.07 39.88 68.35 39.81 68.12 39.78C68.2 39.18 68.43 38.28 69.81 28.35C70.1848 25.5803 70.78 22.845 71.59 20.17C68.74 25.08 61.59 37.17 60.96 38.39C59.999 38.046 58.9793 37.8964 57.96 37.95C57.71 36.63 54.53 23.77 53.19 17.95C53.1519 20.5747 52.9381 23.1939 52.55 25.79C51.01 35.69 50.97 36.63 50.88 37.22C50.64 37.22 49.88 37.04 49.26 36.94C48.45 36.81 47.74 36.73 47.53 36.7C47.63 36.11 47.87 35.2 49.44 25.31C50.64 17.75 50.91 15.16 51 14.57C52.6028 14.7705 54.215 14.8874 55.83 14.92C56.32 16.98 57.14 20.38 58.43 26.05C59.1287 28.8474 59.6695 31.6819 60.05 34.54C60.66 33.18 61.82 31.15 64.05 27.22C66.94 22.16 68.92 18.84 69.98 17C70.98 17.31 74.14 18 74.64 18C74.58 18.66 74.06 21.22 73.06 28.8Z" fill="#A0A1AA"/>
<path d="M78.78 29.56C79.78 21.97 80 19.15 80.08 18.56C80.24 18.56 81 18.71 81.83 18.82C82.66 18.93 83.29 18.97 83.56 19C83.49 19.6 83.03 22.39 82.06 30C80.8 39.94 80.75 40.87 80.67 41.47C80.4 41.47 79.77 41.28 78.95 41.18C78.13 41.08 77.46 41.05 77.18 41.02C77.26 40.4 77.48 39.49 78.78 29.56Z" fill="#A0A1AA"/>
<path d="M105.06 32.65C104 42.65 104.06 43.22 103.98 43.82C103.12 43.82 100.32 44 99.55 44.18C98.92 42.64 93.36 29.58 91.37 24.76C91.3315 26.8698 91.1813 28.9761 90.92 31.07C89.74 41.07 89.73 41.95 89.66 42.55C89.42 42.55 88.66 42.36 88.01 42.28C87.36 42.2 86.47 42.16 86.27 42.14C86.34 41.54 86.56 40.63 87.77 30.69C88.69 23.09 88.87 20.5 88.95 19.91C89.75 19.97 92.1 20.02 93.04 19.99C93.77 21.82 99.43 35.43 101.82 40.91C101.491 38.0517 101.508 35.1643 101.87 32.31C102.69 24.71 102.87 21.88 102.96 21.31C102.96 21.31 103.96 21.48 104.69 21.56C105.42 21.64 106.32 21.67 106.32 21.67C106.23 22.24 105.83 25.05 105.06 32.65Z" fill="#A0A1AA"/>
<path d="M110.72 33.24C111.48 25.63 111.63 22.8 111.72 22.24C111.88 22.24 112.65 22.37 113.48 22.45C114.31 22.53 114.94 22.56 115.21 22.59C115.16 23.18 114.78 25.99 114.04 33.59C113.04 43.59 113.04 44.49 113.04 45.09C112.77 45.09 112.13 44.93 111.32 44.85C110.32 44.76 109.82 44.77 109.54 44.74C109.52 44.12 109.72 43.21 110.72 33.24Z" fill="#A0A1AA"/>
<path d="M118.56 33.97C118.682 32.488 119.095 31.0446 119.775 29.7222C120.455 28.3998 121.389 27.2242 122.523 26.2627C123.657 25.3011 124.97 24.5724 126.386 24.1181C127.801 23.6638 129.293 23.4929 130.775 23.615C132.257 23.7371 133.7 24.15 135.023 24.8299C136.345 25.5099 137.521 26.4436 138.482 27.5779C139.444 28.7122 140.173 30.0247 140.627 31.4406C141.081 32.8565 141.252 34.348 141.13 35.83C140.61 43.06 134.93 47.39 128.84 46.89C122.75 46.39 117.89 41.19 118.56 33.97ZM137.56 35.67C137.95 30.49 134.84 27.26 130.46 26.9C126.08 26.54 122.52 29.22 122.05 34.39C121.58 39.56 124.61 43.24 129.05 43.61C133.49 43.98 137.2 40.92 137.59 35.67H137.56Z" fill="#A0A1AA"/>
<path d="M163.06 37.21C162.54 47.21 162.61 47.82 162.58 48.42C161.104 48.5412 159.636 48.7381 158.18 49.01C157.47 47.51 151.23 34.77 148.98 30.06C149.06 32.1704 149.023 34.2836 148.87 36.39C148.23 46.39 148.27 47.32 148.23 47.92C147.99 47.92 147.23 47.79 146.57 47.74C145.91 47.69 145.03 47.74 144.83 47.69C144.83 47.09 145.03 46.17 145.71 36.18C146.22 28.54 146.26 25.94 146.31 25.35C147.11 25.35 149.46 25.29 150.4 25.21C151.22 27 157.6 40.29 160.27 45.63C159.792 42.7932 159.654 39.9095 159.86 37.04C160.27 29.4 160.32 26.57 160.36 25.97C160.36 25.97 161.36 26.09 162.09 26.13C162.82 26.17 163.73 26.13 163.73 26.13C163.72 26.75 163.47 29.57 163.06 37.21Z" fill="#A0A1AA"/>
<path d="M166.51 46.08C166.88 44.92 167.07 44.35 167.44 43.19C169.919 45.3415 173.051 46.5925 176.33 46.74C179.68 46.81 181.2 45.42 181.26 43.92C181.32 42.42 179.64 41.56 174.13 39.72C169.53 38.19 168.07 35.46 168.2 32.67C168.39 28.67 171.78 26.24 176.65 26.44C179.244 26.5573 181.773 27.2872 184.03 28.57C183.77 29.74 183.65 30.33 183.39 31.51C181.314 30.2519 178.955 29.5366 176.53 29.43C172.75 29.28 171.53 30.89 171.46 32.71C171.39 34.34 172.26 35.8 177.23 37.32C183.1 39.11 184.64 40.97 184.56 43.66C184.43 47.89 180.37 49.86 175.87 49.66C172.458 49.4492 169.192 48.2 166.51 46.08V46.08Z" fill="#A0A1AA"/>
<path d="M195.77 38.63C195.94 30.68 201.22 27.1 206.83 27.16C209.145 27.1567 211.413 27.8122 213.37 29.05C213.25 30.39 213.2 31.05 213.08 32.41C211.316 31.1696 209.234 30.4584 207.08 30.36C202.66 30.25 199.42 33.28 199.33 38.67C199.24 44.06 202.41 47.22 206.89 47.27C209.08 47.2415 211.208 46.5436 212.99 45.27C213.09 46.61 213.14 47.27 213.25 48.63C211.228 49.8411 208.906 50.4581 206.55 50.41C200.84 50.39 195.6 46.59 195.77 38.63Z" fill="#A0A1AA"/>
<path d="M216.77 38.61C216.714 37.0975 216.961 35.589 217.498 34.1738C218.035 32.7586 218.85 31.4654 219.896 30.3708C220.941 29.2762 222.195 28.4023 223.584 27.8009C224.973 27.1994 226.469 26.8827 227.982 26.8693C229.496 26.8559 230.997 27.1462 232.396 27.723C233.795 28.2998 235.065 29.1514 236.129 30.2273C237.194 31.3033 238.032 32.5819 238.594 33.9873C239.155 35.3928 239.43 36.8967 239.4 38.41C239.54 45.67 234.28 50.5 228.17 50.55C222.06 50.6 216.75 45.86 216.77 38.61ZM235.86 38.61C235.78 33.42 232.39 30.48 228 30.52C223.61 30.56 220.3 33.52 220.31 38.74C220.32 43.96 223.66 47.33 228.14 47.29C232.62 47.25 235.95 43.8 235.86 38.58V38.61Z" fill="#A0A1AA"/>
<path d="M256.73 46.17L256.68 49.4C255.28 49.58 253.27 49.72 250.48 49.8C248.23 49.86 244.99 49.8 244.17 49.7C244.17 49.1 244.24 48.4 244 38.35C243.82 30.7 243.63 27.87 243.61 27.28C243.74 27.28 244.71 27.28 245.48 27.28C246.25 27.28 246.98 27.21 247.12 27.21C247.12 27.81 247.12 30.64 247.31 38.29C247.43 42.71 247.52 45.21 247.6 46.7C248.28 46.7 249.23 46.7 250.18 46.7C253.75 46.54 255.88 46.27 256.73 46.17Z" fill="#A0A1AA"/>
<path d="M273.55 45.46V48.69C272.16 48.89 270.15 49.06 267.36 49.18C265.11 49.28 261.86 49.24 261.04 49.18C261.04 48.59 261.04 47.88 260.71 37.84C260.41 30.2 260.17 27.37 260.14 26.78C260.28 26.78 261.25 26.78 262.01 26.73C262.77 26.68 263.51 26.64 263.65 26.63C263.65 27.23 263.65 30.06 264.01 37.71C264.19 42.13 264.33 44.62 264.43 46.12C265.11 46.12 266.06 46.12 267.01 46.04C270.58 45.92 272.71 45.56 273.55 45.46Z" fill="#A0A1AA"/>
<path d="M283.83 45.16C286.602 45.0413 289.361 44.7306 292.09 44.23C292.09 45.52 292.09 46.17 292.09 47.46C289.473 47.9046 286.832 48.1851 284.18 48.3C281.9 48.44 279.13 48.3 277.86 48.3C277.86 47.7 277.86 45.07 277.4 37.1C276.99 29.59 276.67 26.77 276.63 26.17C277.04 26.17 279.63 25.78 282.82 25.59C287.19 25.33 290.04 25.33 290.77 25.28C290.77 26.55 290.77 27.19 290.77 28.45C290.27 28.45 287.77 28.45 283.77 28.7C282.53 28.77 281.3 28.85 280.26 28.94C280.43 31.84 280.51 33.29 280.68 36.18C281.45 36.18 282.4 36.18 283.48 36.08C286.1 35.93 287.42 35.84 290.04 35.67C290.09 36.76 290.11 37.31 290.15 38.4C288.248 38.7209 286.327 38.9213 284.4 39C283.213 39.064 282.024 39.0439 280.84 38.94C280.98 41.46 281.05 42.73 281.2 45.25C282 45.23 282.85 45.22 283.83 45.16Z" fill="#A0A1AA"/>
<path d="M295.24 36.17C294.68 28.24 299.62 24.17 305.24 23.74C307.545 23.5198 309.866 23.9603 311.93 25.01C311.93 26.36 311.93 27.01 311.93 28.39C310.065 27.3151 307.93 26.798 305.78 26.9C301.37 27.19 298.42 30.51 298.78 35.9C299.14 41.29 302.63 44.13 307.11 43.77C309.285 43.5564 311.344 42.6843 313.01 41.27C313.23 42.6 313.35 43.27 313.57 44.59C311.663 45.9648 309.406 46.7725 307.06 46.92C301.38 47.42 295.81 44.11 295.24 36.17Z" fill="#A0A1AA"/>
<path d="M324.67 25.43C324.78 26.99 325.03 29.43 325.42 33.38C326.42 43.38 326.6 44.27 326.66 44.86C326.35 44.86 325.77 44.86 324.88 44.97C323.99 45.08 323.43 45.18 323.12 45.21C323.07 44.61 323.12 43.67 322.12 33.7C321.75 29.79 321.51 27.31 321.33 25.76C318.79 26.03 317.17 26.28 315.2 26.46C315.03 25.23 314.95 24.62 314.79 23.39C315.46 23.33 317.9 22.91 322.69 22.45C327.48 21.99 329.96 21.92 330.63 21.85C330.7 23.08 330.74 23.7 330.81 24.94C328.88 25.14 327.24 25.21 324.67 25.43Z" fill="#A0A1AA"/>
<path d="M336.06 32.28C335.23 24.67 334.79 21.88 334.73 21.28C334.9 21.28 335.66 21.21 336.49 21.12C337.32 21.03 337.95 20.93 338.22 20.9C338.29 21.49 338.5 24.31 339.35 31.9C340.47 41.85 340.64 42.77 340.7 43.37C340.43 43.37 339.78 43.37 338.96 43.49C338.14 43.61 337.48 43.72 337.21 43.75C337.06 43.18 337.06 42.24 336.06 32.28Z" fill="#A0A1AA"/>
<path d="M343.84 31.37C343.461 28.3863 344.282 25.3742 346.124 22.9962C347.965 20.6182 350.676 19.0692 353.66 18.69C356.644 18.3107 359.656 19.1323 362.034 20.9739C364.412 22.8155 365.961 25.5263 366.34 28.51C367.34 35.7 362.65 41.11 356.58 41.88C350.51 42.65 344.67 38.57 343.84 31.37ZM362.84 29.09C362.15 23.94 358.43 21.43 354.07 21.98C349.71 22.53 346.77 25.9 347.38 31.05C347.99 36.2 351.71 39.18 356.18 38.62C360.65 38.06 363.53 34.27 362.83 29.09H362.84Z" fill="#A0A1AA"/>
<path d="M388.14 25.32C389.71 35.22 389.9 35.79 389.99 36.38C389.17 36.65 386.5 37.5 385.8 37.88C384.8 36.55 376.03 25.39 372.85 21.24C373.369 23.2892 373.773 25.3658 374.06 27.46C375.49 37.37 375.73 38.28 375.81 38.87C375.58 38.87 374.81 38.94 374.14 39.04C373.47 39.14 372.63 39.33 372.43 39.35C372.35 38.76 372.32 37.82 370.91 27.91C369.84 20.33 369.34 17.78 369.25 17.19C370.05 17.04 372.33 16.48 373.25 16.19C374.43 17.77 383.43 29.44 387.16 34.12C386.104 31.4429 385.369 28.6501 384.97 25.8C383.8 18.24 383.26 15.46 383.17 14.87C383.17 14.87 384.17 14.77 384.9 14.66C385.63 14.55 386.52 14.34 386.52 14.34C386.6 14.92 386.94 17.76 388.14 25.32Z" fill="#A0A1AA"/>
<path d="M17.22 0L20.25 10.39L30.53 13.78L21.59 19.87L21.53 30.69L12.98 24.07L2.67 27.37L6.32 17.18L0 8.40002L10.82 8.72L17.22 0Z" fill="#A0A1AA"/>
<path d="M419.88 0.26001L426.28 8.98001L437.09 8.65002L430.78 17.44L434.43 27.62L424.12 24.33L415.56 30.95L415.51 20.13L406.57 14.04L416.85 10.64L419.88 0.26001Z" fill="#A0A1AA"/>
</svg>
