<svg xmlns="http://www.w3.org/2000/svg" width="384" height="67.202" viewBox="0 0 384 67.202"><defs><style>.a{fill:#2858a8;}</style></defs><g transform="translate(0 0.04)"><g transform="translate(0 -0.039)"><path class="a" d="M50.068,14.63c.537,4.627,1.368,21.429,1.406,21.73-3.6.32-5.407.486-9,.831-.051-.377-1.706-8.308-2.352-11.8-3.317.339-4.972.518-8.308.882.217,2.671.639,6.161,1.278,10.91.722,5.439,1.278,9.427,1.713,12.392a40.61,40.61,0,0,1,5.752-.1c.313,3.688.473,5.535.786,9.229,0,0-5.317.358-11.229,1.17s-10.366,1.8-10.941,1.917c-.7-3.637-1.042-5.458-1.738-9.094a49.077,49.077,0,0,1,5.579-1.476c-.364-2.978-.933-6.96-1.706-12.392-.677-4.742-1.24-8.206-1.738-10.775-2.844.4-5.113.805-7.03,1.157.313,3.438.767,10.986.824,11.363-3.566.639-5.349.965-8.909,1.63C4.365,41.881.729,26.108,0,21.507c.2-.032,8.308-2.052,24.925-4.327S49.85,14.649,50.068,14.63Z" transform="translate(0 -5.255)"/><path class="a" d="M86.167,41.306c-1.2-10.462,6.059-19.3,19.084-20.566s21.845,6.014,22.675,16.514c.805,10.117-6.474,18.975-19.109,20.2S87.324,51.4,86.167,41.306Zm29.84-3.049c-.428-4.768-3.988-8.174-9.791-7.612s-8.647,4.608-8.149,9.382c.454,4.314,4.071,8.1,9.791,7.548s8.532-4.991,8.149-9.305Z" transform="translate(-31.051 -7.408)"/><path class="a" d="M198.811,15.631c-5.72,16.3-11.97,32.741-19.448,48.316-4.9-.709-7.343-1.055-12.252-1.713,2.409-5.113,4.282-9.178,5.886-12.61A137.918,137.918,0,0,1,154.7,18.1c5.247-1,7.874-1.476,13.134-2.409,3.036,8.558,6.5,17.358,9.273,24.42,2.921-7.075,4.474-12.61,9.318-25.379C191.385,15.062,193.877,15.241,198.811,15.631Z" transform="translate(-55.83 -5.291)"/><path class="a" d="M255.37,48.047c.07,4.129-2.416,7.746-12.935,8.034-9.273.256-13.421-2.876-13.575-7.088a5.944,5.944,0,0,1,.927-3.061h4.308a6.819,6.819,0,0,1-4.55-6.391c-.217-5.656,4.991-7.823,12.213-8.021,8.947-.249,12.188,2.109,12.252,5.752a13.415,13.415,0,0,1-.377,3.155l-5.912-.388V37.828a32.9,32.9,0,0,0-5.752-.281c-3.017.083-5.164.236-5.113,1.425s2.2,1.323,6.532,1.77C253.344,41.765,255.306,43.918,255.37,48.047Zm-6.608.556c0-.939-1.834-.927-10.564-1.764a20.247,20.247,0,0,1-2.448-.39c0,.594-.121,1.617-.128,2.774a28.76,28.76,0,0,0,7.8.786C247.726,49.894,248.8,49.325,248.762,48.6Z" transform="translate(-82.594 -11.344)"/><path class="a" d="M322.568,27.282c1.138,2.128,3.151,5.637,4.729,8.142,1.176,1.879,2.4,2.806,4.474,2.863a10.711,10.711,0,0,0,3.33-.473l-1.406,5.752a9.631,9.631,0,0,1-5.541,1.317c-4.141-.1-6.461-2.39-8.244-5.6a103.382,103.382,0,0,1-5.158-12.718,26.843,26.843,0,0,1-3.732-1.067c-1.233,5.349-2.052,8.947-2.595,11.5a30.459,30.459,0,0,1,5.011.639c-.582,2.524-.869,3.784-1.444,6.3,0,0-3.617-.3-9.184-.326s-9.587.262-9.587.262c.53-2.556.8-3.8,1.336-6.327a40.9,40.9,0,0,1,5.6-.575c.722-3.061,1.758-7.74,3.381-14.993,1.527-6.806,2.512-11.344,3.132-14.405A49.457,49.457,0,0,0,301,8.211c.594-2.556.888-3.79,1.489-6.314A79.249,79.249,0,0,1,321.622-.021c12.616.243,20.26,5.918,17.735,15.792C337.011,25.032,329.464,27.1,322.568,27.282Zm-.927-20.266c-1.917,0-4.141,0-6.391.089-.639,2.735-1.559,6.87-3.023,13.236,1.981.217,4.55.441,7.669.5,6.391.109,10.309-1.655,11.4-6.64C332.269,9.6,328.869,7.163,321.641,7.016Z" transform="translate(-105.822 0.039)"/><path class="a" d="M427.393,15.789l-4.18-.447c-.358,3.049-.709,6.992-1.189,13.421C420.746,46.018,412.105,48.824,403.2,48.3c-8.4-.5-12.616-4.474-13.7-6.289.5-4.653.761-6.979,1.278-11.632,1.547,2.052,4.972,6.685,11.427,7.03,4.474.256,7.433-.569,7.893-7.772s.639-11.791.767-15.172c-4.32-.275-6.653-.275-6.653-.275.057-3.707.083-5.56.134-9.267A111.713,111.713,0,0,1,416.713,5a84.293,84.293,0,0,1,11.8,1.566C428.057,10.241,427.834,12.082,427.393,15.789Z" transform="translate(-140.568 -1.703)"/><path class="a" d="M453.125,37.457c.844-10.5,9.67-17.767,22.695-16.489S496.092,31.1,494.884,41.56c-1.17,10.053-10.04,17.364-22.688,16.125S452.307,47.574,453.125,37.457Zm29.853,2.78c.5-4.755-2.333-8.788-8.129-9.356s-9.369,2.838-9.8,7.6c-.39,4.32,2.422,8.737,8.142,9.293s9.337-3.189,9.791-7.535Z" transform="translate(-163.508 -7.489)"/><path class="a" d="M569.958,33.221c-1.023,1.323-3.969,7.516-8.034,17.48-.639,1.579-3.2,8.947-4.1,11.191-3.381,8.781-10.091,16.8-24.024,14.949-9.663-1.278-14.91-4.857-18.534-8.11,1.687-3.093,2.556-4.64,4.237-7.727a33.236,33.236,0,0,0,15.115,6.474c7.03.939,9.472-2.141,11.344-7.2,1.732-4.691,3.394-9,4.723-12.22-9.082,12.232-15.684,13.607-20.068,13.038-6.25-.805-10.379-4.761-7.247-13.639,1-2.838,1.917-5.3,2.633-7.458,3.355-10.008,3.6-11.836,3.681-12.475,5.011.639,7.516.952,12.52,1.623-.083.639-.594,2.818-3.956,11.5-.639,1.591-1.278,3.374-1.981,5.4-1.38,3.835-.115,4.876,1.642,5.113,4.749.639,13.894-7.548,20.707-19.7C563.145,32.154,565.414,32.5,569.958,33.221Z" transform="translate(-185.958 -9.907)"/></g></g></svg>