<svg xmlns="http://www.w3.org/2000/svg" width="488.395" height="388.276" viewBox="0 0 488.395 388.276"><defs><style>.a{fill:#ffdfa6;}.b{fill:#a0a1aa;}.c{fill:#2858a8;}</style></defs><g transform="translate(-0.05)"><g transform="translate(0.05)"><path class="a" d="M264.145,0l51.19,103.729L429.8,120.361,346.974,201.1l19.551,114.012L264.145,261.281,161.758,315.113,181.309,201.1,98.48,120.361l114.467-16.632Z" transform="translate(-18.464)"/><path class="b" d="M153.224,453.218c-1.1,8.072-1.122,8.828-1.187,9.316-.187,0-.74-.13-1.4-.219s-1.244-.146-1.431-.171c.065-.488.252-1.219,1.374-9.292a42.705,42.705,0,0,1,1.447-6.65c-2.317,3.991-8.129,13.82-8.641,14.811a6.258,6.258,0,0,0-2.439-.358c-.2-1.073-2.788-11.527-3.878-16.258a47.794,47.794,0,0,1-.52,6.373c-1.252,8.048-1.284,8.812-1.358,9.292-.2,0-.813-.146-1.317-.228-.658-.106-1.236-.171-1.406-.2.081-.48.276-1.219,1.553-9.259.976-6.146,1.2-8.251,1.268-8.731a37.788,37.788,0,0,0,3.926.285c.4,1.675,1.065,4.439,2.114,9.048a62.532,62.532,0,0,1,1.317,6.9c.5-1.106,1.439-2.756,3.252-5.951,2.349-4.113,3.959-6.812,4.821-8.308a30.856,30.856,0,0,0,3.788.813C154.46,444.975,154.037,447.056,153.224,453.218Z" transform="translate(-24.823 -82.623)"/><path class="b" d="M163.421,454.582c.813-6.17.992-8.463,1.057-8.942.13,0,.748.122,1.423.211s1.187.122,1.406.146c-.057.488-.431,2.756-1.219,8.942-1.024,8.08-1.065,8.836-1.13,9.324-.219,0-.732-.154-1.4-.236s-1.211-.106-1.439-.13C162.185,463.394,162.364,462.654,163.421,454.582Z" transform="translate(-30.37 -83.37)"/><path class="b" d="M186.485,457.347c-.862,8.129-.813,8.593-.878,9.08a28.694,28.694,0,0,0-3.6.293c-.512-1.252-5.032-11.869-6.65-15.787a48.565,48.565,0,0,1-.366,5.13c-.959,8.129-.967,8.845-1.024,9.332-.2,0-.813-.154-1.341-.219s-1.252-.1-1.414-.114c.057-.488.236-1.228,1.219-9.308.748-6.178.894-8.284.959-8.763.65.049,2.561.089,3.325.065.593,1.488,5.195,12.551,7.137,17.006a29.1,29.1,0,0,1,.041-6.991c.667-6.178.813-8.479.886-8.942,0,0,.813.138,1.406.2s1.325.089,1.325.089C187.436,448.884,187.111,451.168,186.485,457.347Z" transform="translate(-32.07 -83.622)"/><path class="b" d="M195.439,458.262c.618-6.186.74-8.487.813-8.942.13,0,.756.106,1.431.171s1.187.089,1.406.114c-.041.48-.35,2.764-.951,8.942-.813,8.129-.813,8.861-.813,9.349-.219,0-.74-.13-1.4-.2-.813-.073-1.219-.065-1.447-.089C194.464,467.107,194.626,466.367,195.439,458.262Z" transform="translate(-36.423 -84.058)"/><path class="b" d="M203.488,459.106a9.2,9.2,0,0,1,18.348,1.512c-.423,5.877-5.04,9.4-9.991,8.991S202.944,464.975,203.488,459.106Zm15.445,1.382c.317-4.211-2.211-6.837-5.772-7.129s-6.455,1.886-6.837,6.089,2.081,7.194,5.69,7.5,6.625-2.187,6.942-6.455Z" transform="translate(-38.1 -84.308)"/><path class="b" d="M244.59,462.045c-.423,8.129-.366,8.625-.39,9.113a35.123,35.123,0,0,0-3.577.48c-.577-1.219-5.65-11.576-7.479-15.4a46.627,46.627,0,0,1-.089,5.146c-.52,8.129-.488,8.885-.52,9.373-.2,0-.813-.106-1.349-.146s-1.252,0-1.414-.041c0-.488.163-1.236.715-9.357.415-6.211.447-8.324.488-8.8.65,0,2.561-.049,3.325-.114.667,1.455,5.853,12.259,8.024,16.6a29.378,29.378,0,0,1-.333-6.983c.333-6.211.374-8.511.406-9,0,0,.813.1,1.406.13s1.333,0,1.333,0C245.126,453.542,244.923,455.834,244.59,462.045Z" transform="translate(-43.026 -84.614)"/><path class="b" d="M251.45,469.484c.3-.943.455-1.406.756-2.349a11.836,11.836,0,0,0,7.227,2.886c2.723.057,3.959-1.073,4.008-2.292s-1.317-1.918-5.8-3.414c-3.739-1.244-4.926-3.463-4.821-5.731.154-3.252,2.91-5.227,6.869-5.065a13.364,13.364,0,0,1,6,1.732c-.211.951-.309,1.431-.52,2.39a11.755,11.755,0,0,0-5.577-1.691c-3.073-.122-4.065,1.187-4.122,2.666-.057,1.325.65,2.512,4.691,3.748,4.772,1.455,6.024,2.967,5.959,5.154-.106,3.439-3.406,5.04-7.064,4.878a13.625,13.625,0,0,1-7.609-2.91Z" transform="translate(-47.082 -84.842)"/><path class="b" d="M280.709,463.564c.138-6.463,4.43-9.373,8.991-9.324a9.917,9.917,0,0,1,5.316,1.536c-.1,1.089-.138,1.626-.236,2.731a9.211,9.211,0,0,0-4.878-1.666c-3.593-.089-6.227,2.374-6.3,6.755s2.5,6.95,6.146,6.991a8.723,8.723,0,0,0,4.959-1.626c.081,1.089.122,1.626.211,2.731a10.194,10.194,0,0,1-5.447,1.447C284.831,473.124,280.571,470.035,280.709,463.564Z" transform="translate(-52.555 -84.979)"/><path class="b" d="M301.709,463.493a9.2,9.2,0,1,1,18.4-.163c.114,5.9-4.162,9.828-9.129,9.869S301.692,469.387,301.709,463.493Zm15.519,0c-.065-4.219-2.821-6.609-6.39-6.577s-6.26,2.439-6.251,6.682,2.723,6.983,6.365,6.95,6.349-2.837,6.276-7.081Z" transform="translate(-56.483 -84.924)"/><path class="b" d="M339.216,469.7l-.041,2.626c-1.138.146-2.772.26-5.04.325-1.829.049-4.463,0-5.13-.081,0-.488.057-1.057-.138-9.227-.146-6.219-.3-8.519-.317-9h1.52c.626,0,1.219-.057,1.333-.057,0,.488,0,2.788.154,9.007.1,3.593.171,5.625.236,6.837h2.1C336.793,470,338.525,469.784,339.216,469.7Z" transform="translate(-61.505 -84.988)"/><path class="b" d="M355.981,469.017v2.626c-1.13.163-2.764.3-5.032.4-1.829.081-4.471.049-5.138,0,0-.48,0-1.057-.268-9.219-.244-6.211-.439-8.511-.463-8.991.114,0,.9,0,1.52-.041s1.219-.073,1.333-.081c0,.488,0,2.788.293,9.007.146,3.593.26,5.617.341,6.837.553,0,1.325,0,2.1-.065A47.735,47.735,0,0,0,355.981,469.017Z" transform="translate(-64.598 -84.879)"/><path class="b" d="M367.423,468.521a48.769,48.769,0,0,0,6.715-.756v2.626a51.766,51.766,0,0,1-6.43.683c-1.853.114-4.105,0-5.138,0,0-.488,0-2.626-.374-9.1-.333-6.105-.593-8.4-.626-8.885.333,0,2.439-.317,5.032-.471,3.552-.211,5.869-.211,6.463-.252v2.577c-.406,0-2.439,0-5.69.2-1.008.057-2.008.122-2.853.2.138,2.357.2,3.536.341,5.886.626,0,1.4,0,2.276-.081,2.13-.122,3.2-.2,5.333-.333.041.886.057,1.333.089,2.219a37.226,37.226,0,0,1-4.674.488,20.485,20.485,0,0,1-2.894-.049c.114,2.049.171,3.081.293,5.13C365.935,468.578,366.626,468.57,367.423,468.521Z" transform="translate(-67.683 -84.627)"/><path class="b" d="M380.172,460.914c-.455-6.446,3.561-9.755,8.129-10.1a9.917,9.917,0,0,1,5.438,1.032v2.748a9.145,9.145,0,0,0-5-1.211c-3.585.236-5.983,2.935-5.69,7.316s3.13,6.69,6.772,6.4a8.731,8.731,0,0,0,4.8-2.032c.179,1.081.276,1.626.455,2.7a10.137,10.137,0,0,1-5.292,1.894C385.163,470.06,380.635,467.369,380.172,460.914Z" transform="translate(-71.156 -84.328)"/><path class="b" d="M407.762,451.84c.089,1.268.293,3.252.61,6.463.813,8.129.959,8.853,1.008,9.332a10.951,10.951,0,0,0-1.447.089c-.723.089-1.179.171-1.431.2-.041-.488,0-1.252-.813-9.357-.3-3.179-.5-5.195-.642-6.455-2.065.219-3.382.423-4.983.569-.138-1-.2-1.5-.333-2.5.545-.049,2.528-.39,6.422-.764s5.91-.431,6.455-.488c.057,1,.089,1.5.146,2.512C411.184,451.6,409.851,451.661,407.762,451.84Z" transform="translate(-74.822 -83.985)"/><path class="b" d="M420.751,457.231c-.675-6.186-1.032-8.454-1.081-8.942.138,0,.756-.057,1.431-.13s1.187-.154,1.406-.179c.057.48.228,2.772.919,8.942.91,8.089,1.049,8.836,1.1,9.324a9.506,9.506,0,0,0-1.414.1c-.667.1-1.2.187-1.423.211C421.564,466.092,421.564,465.328,420.751,457.231Z" transform="translate(-78.552 -83.808)"/><path class="b" d="M428.763,456.061a9.235,9.235,0,1,1,10.357,8.544C434.185,465.23,429.438,461.914,428.763,456.061Zm15.445-1.853c-.561-4.187-3.585-6.227-7.129-5.78s-5.934,3.187-5.438,7.373,3.52,6.609,7.154,6.154,5.975-3.536,5.406-7.747Z" transform="translate(-80.239 -83.377)"/><path class="b" d="M469.546,450.346c1.276,8.048,1.431,8.511,1.5,8.991-.667.219-2.837.91-3.406,1.219-.813-1.081-7.942-10.153-10.527-13.527a46.157,46.157,0,0,1,.984,5.056c1.162,8.056,1.358,8.8,1.423,9.275a13.353,13.353,0,0,0-1.358.138c-.545.081-1.228.236-1.39.252-.065-.48-.089-1.244-1.236-9.3-.87-6.162-1.276-8.235-1.349-8.715.65-.122,2.5-.577,3.252-.813.959,1.284,8.276,10.771,11.308,14.576a29.622,29.622,0,0,1-1.78-6.764c-.951-6.146-1.39-8.406-1.463-8.885,0,0,.813-.081,1.406-.171s1.317-.26,1.317-.26C468.294,441.892,468.571,444.2,469.546,450.346Z" transform="translate(-85.01 -82.58)"/><path class="c" d="M63.694,202.48c.683,5.886,1.74,27.265,1.788,27.639-4.585.406-6.877.626-11.454,1.065-.065-.48-2.17-10.527-2.992-15.007-4.219.431-6.325.65-10.568,1.114.276,3.406.813,7.845,1.626,13.877.919,6.918,1.626,11.991,2.179,15.763a53.368,53.368,0,0,1,7.316-.13c.4,4.7.6,7.048,1,11.739,0,0-6.764.455-14.283,1.5s-13.186,2.284-13.917,2.4l-2.26-11.568a61.637,61.637,0,0,1,7.146-1.837c-.463-3.788-1.187-8.853-2.171-15.763-.862-6.032-1.577-10.438-2.211-13.714-3.617.52-6.5,1.032-8.942,1.471.4,4.382.976,13.974,1.049,14.454-4.536.813-6.8,1.228-11.332,2.073C5.6,237.151.977,217.088.05,211.235c.252-.041,10.568-2.609,31.7-5.512S63.417,202.513,63.694,202.48Z" transform="translate(-0.05 -37.88)"/><path class="c" d="M86.2,234.816c-1.528-13.308,7.706-24.558,24.274-26.168s27.786,7.65,28.842,21.006c1.024,12.869-8.235,24.144-24.306,25.7S87.674,247.636,86.2,234.816Zm37.955-3.878c-.545-6.064-5.073-10.4-12.454-9.682s-11,5.845-10.365,11.893c.577,5.5,5.178,10.308,12.454,9.6S124.645,236.434,124.158,230.939Z" transform="translate(-16.137 -39)"/><path class="c" d="M210.808,203.734c-7.276,20.738-15.226,41.646-24.737,61.457-6.227-.9-9.34-1.333-15.584-2.171,3.065-6.5,5.447-11.682,7.487-16.039A175.51,175.51,0,0,1,154.7,206.864c6.674-1.26,10.015-1.87,16.706-3.065,3.861,10.893,8.267,22.087,11.8,31.07,3.715-9.007,5.69-16.039,11.852-32.289C201.362,203,204.532,203.23,210.808,203.734Z" transform="translate(-28.982 -37.898)"/><path class="c" d="M262.58,240.407c.089,5.251-3.073,9.844-16.454,10.218-11.8.325-17.071-3.658-17.266-9.015a7.536,7.536,0,0,1,1.179-3.894h5.479a8.682,8.682,0,0,1-5.788-8.129c-.276-7.194,6.349-9.95,15.535-10.2,11.381-.317,15.5,2.683,15.584,7.316a16.923,16.923,0,0,1-.48,4.008l-7.52-.488V227.4a42.653,42.653,0,0,0-7.316-.358c-3.837.106-6.568.309-6.5,1.821s2.8,1.683,8.308,2.252C260,232.408,262.5,235.155,262.58,240.407Zm-8.381.7c0-1.187-2.333-1.179-13.438-2.244a22.9,22.9,0,0,1-3.113-.5c0,.764-.154,2.065-.163,3.528A36.526,36.526,0,0,0,247.4,242.9c5.455-.146,6.82-.878,6.772-1.8Z" transform="translate(-42.855 -41.038)"/><path class="c" d="M330.549,222.561c1.447,2.707,4.008,7.178,6.016,10.365,1.5,2.39,3.057,3.569,5.69,3.642a13.641,13.641,0,0,0,4.235-.61l-1.788,7.316a12.316,12.316,0,0,1-7.048,1.675c-5.268-.13-8.219-3.048-10.487-7.129-2.016-3.634-5.032-11.69-6.56-16.177a34.143,34.143,0,0,1-4.747-1.358c-1.569,6.8-2.609,11.422-3.3,14.633a37.6,37.6,0,0,1,6.373.813c-.74,3.2-1.106,4.8-1.837,8.015,0,0-4.6-.39-11.682-.415s-12.194.325-12.194.325c.675-3.211,1.016-4.821,1.7-8.04a50.976,50.976,0,0,1,7.121-.74c.919-3.894,2.236-9.845,4.3-19.063,1.943-8.666,3.195-14.437,3.983-18.331a66.925,66.925,0,0,0-7.211.813c.756-3.211,1.13-4.821,1.894-8.032a101.38,101.38,0,0,1,24.339-2.439c16.047.3,25.77,7.52,22.559,20.079C348.921,219.708,339.321,222.333,330.549,222.561ZM329.371,196.8c-2.439-.049-5.268,0-8.129.106-.813,3.479-1.984,8.747-3.845,16.844,2.52.268,5.788.561,9.755.626,8.129.146,13.112-2.1,14.5-8.446C342.889,200.076,338.565,196.97,329.371,196.8Z" transform="translate(-54.896 -35.134)"/><path class="c" d="M437.7,206.593l-5.317-.561c-.455,3.87-.9,8.885-1.512,17.071-1.626,21.949-12.617,25.526-23.949,24.851-10.69-.626-16.047-5.69-17.421-8,.642-5.918.967-8.877,1.626-14.8,1.967,2.609,6.325,8.5,14.535,8.942,5.69.333,9.454-.724,10.04-9.877s.813-15,.976-19.3c-5.5-.35-8.463-.358-8.463-.358.073-4.707.106-7.064.171-11.779a139.821,139.821,0,0,1,15.73.1,108.121,108.121,0,0,1,15.007,1.984C438.544,199.578,438.259,201.919,437.7,206.593Z" transform="translate(-72.908 -36.034)"/><path class="c" d="M453.142,229.832c1.073-13.348,12.3-22.6,28.867-20.965s25.786,12.877,24.249,26.184c-1.488,12.828-12.771,22.1-28.834,20.51S452.1,242.7,453.142,229.832Zm37.971,3.544c.642-6.056-2.967-11.186-10.34-11.909s-11.917,3.6-12.47,9.666c-.5,5.5,3.081,11.113,10.357,11.828S490.536,238.864,491.113,233.377Z" transform="translate(-84.799 -39.04)"/><path class="c" d="M584.832,222.623c-1.3,1.691-5.048,9.56-10.218,22.233-.813,2.016-4.065,11.381-5.211,14.234-4.3,11.17-12.836,21.38-30.558,19.014-12.291-1.626-18.965-6.178-23.575-10.308,2.146-3.935,3.252-5.9,5.39-9.828,5.349,3.9,11.966,7.268,19.226,8.235,8.942,1.187,12.047-2.723,14.429-9.17,2.2-5.967,4.317-11.438,6.007-15.543C548.771,257.05,540.373,258.8,534.8,258.083c-7.95-1.024-13.2-6.056-9.219-17.356,1.276-3.6,2.439-6.739,3.349-9.487,4.268-12.722,4.585-15.055,4.682-15.86,6.373.813,9.56,1.2,15.925,2.065-.106.813-.756,3.585-5.032,14.633-.813,2.032-1.626,4.3-2.52,6.877-1.756,4.878-.146,6.2,2.089,6.5,6.04.813,17.673-9.6,26.339-25.062C576.166,221.266,579.052,221.713,584.832,222.623Z" transform="translate(-96.437 -40.293)"/><path class="b" d="M98.939,427.08l2.463,8.446,8.357,2.756-7.268,4.951-.049,8.8-6.95-5.382L87.11,449.33l2.967-8.284-5.138-7.137,8.8.26Z" transform="translate(-15.931 -79.898)"/><path class="b" d="M502.33,427.34l5.2,7.089,8.788-.268-5.13,7.146,2.967,8.276-8.381-2.674-6.959,5.382-.041-8.8-7.268-4.951,8.357-2.764Z" transform="translate(-91.992 -79.946)"/></g></g></svg>